<?xml version="1.0" encoding="utf-8"?>
<!-- Generator: Adobe Illustrator 16.0.0, SVG Export Plug-In . SVG Version: 6.00 Build 0)  -->
<!DOCTYPE svg PUBLIC "-//W3C//DTD SVG 1.1//EN" "http://www.w3.org/Graphics/SVG/1.1/DTD/svg11.dtd">
<svg version="1.1" id="Instagram" xmlns="http://www.w3.org/2000/svg" xmlns:xlink="http://www.w3.org/1999/xlink" x="0px" y="0px"
	 width="700px" height="700px" viewBox="0 0 700 700" enable-background="new 0 0 700 700" xml:space="preserve">
<g>
	<circle id="instagram-back" fill="#FFFFFF" cx="350" cy="350" r="350"/>
	<path id="instagram-instagram" fill="#1A1948" d="M500.78,319.828h-34.126c2.483,9.653,3.957,19.736,3.957,30.164
		c0,66.626-54.004,120.62-120.614,120.62c-66.607,0-120.609-53.993-120.609-120.62c0-10.427,1.474-20.51,3.963-30.164h-34.129
		v165.859c0,8.315,6.753,15.066,15.093,15.066h271.368c8.342,0,15.098-6.751,15.098-15.066V319.828L500.78,319.828z M500.78,214.298
		c0-8.323-6.756-15.076-15.098-15.076h-45.219c-8.326,0-15.076,6.753-15.076,15.076v45.238c0,8.323,6.75,15.076,15.076,15.076
		h45.219c8.342,0,15.098-6.753,15.098-15.076V214.298L500.78,214.298z M349.997,274.612c-41.635,0-75.385,33.745-75.385,75.379
		c0,41.633,33.75,75.396,75.385,75.396c41.638,0,75.391-33.763,75.391-75.396C425.388,308.357,391.635,274.612,349.997,274.612
		 M500.78,545.999H199.222c-24.973,0-45.221-20.257-45.221-45.245V199.222c0-24.975,20.249-45.221,45.221-45.221H500.78
		c24.979,0,45.219,20.246,45.219,45.221v301.532C545.999,525.742,525.759,545.999,500.78,545.999"/>
</g>
</svg>
