<?xml version="1.0" encoding="utf-8"?>
<!-- Generator: Adobe Illustrator 16.0.0, SVG Export Plug-In . SVG Version: 6.00 Build 0)  -->
<!DOCTYPE svg PUBLIC "-//W3C//DTD SVG 1.1//EN" "http://www.w3.org/Graphics/SVG/1.1/DTD/svg11.dtd">
<svg version="1.1" id="Layer_1" xmlns="http://www.w3.org/2000/svg" xmlns:xlink="http://www.w3.org/1999/xlink" x="0px" y="0px"
	 width="132.435px" height="132.435px" viewBox="0 0 132.435 132.435" enable-background="new 0 0 132.435 132.435"
	 xml:space="preserve">
<g transform="translate(0,-952.36218)">
	<path d="M32.162,952.362C14.442,952.362,0,966.805,0,984.525v68.109c0,17.721,14.442,32.163,32.162,32.163h68.109
		c17.721,0,32.163-14.442,32.163-32.163v-68.109c0-17.72-14.442-32.163-32.163-32.163H32.162z M32.162,963.714h68.109
		c11.628,0,20.812,9.184,20.812,20.811v68.109c0,11.628-9.184,20.812-20.812,20.812H32.162c-11.627,0-20.811-9.184-20.811-20.812
		v-68.109C11.352,972.897,20.535,963.714,32.162,963.714z M104.056,975.065c-4.18,0-7.567,3.388-7.567,7.567
		s3.388,7.568,7.567,7.568s7.567-3.388,7.567-7.568S108.235,975.065,104.056,975.065z M66.217,986.417
		c-17.695,0-32.162,14.467-32.162,32.162c0,17.696,14.467,32.163,32.162,32.163c17.696,0,32.163-14.467,32.163-32.163
		C98.38,1000.884,83.913,986.417,66.217,986.417z M66.217,997.768c11.562,0,20.812,9.25,20.812,20.811
		c0,11.562-9.25,20.812-20.812,20.812c-11.561,0-20.811-9.25-20.811-20.812C45.406,1007.018,54.656,997.768,66.217,997.768z"/>
</g>
</svg>
