<?xml version="1.0" encoding="utf-8"?>
<!-- Generator: Adobe Illustrator 16.0.0, SVG Export Plug-In . SVG Version: 6.00 Build 0)  -->
<!DOCTYPE svg PUBLIC "-//W3C//DTD SVG 1.1//EN" "http://www.w3.org/Graphics/SVG/1.1/DTD/svg11.dtd">
<svg version="1.1" id="Layer_1" xmlns="http://www.w3.org/2000/svg" xmlns:xlink="http://www.w3.org/1999/xlink" x="0px" y="0px"
	 width="132.435px" height="132.435px" viewBox="0 0 132.435 132.435" enable-background="new 0 0 132.435 132.435"
	 xml:space="preserve">
<path d="M80.427,53.864c0.001-0.384-0.149-0.877-0.422-1.147c-0.271-0.271-0.637-0.547-1.021-0.547c0,0-0.172,0-0.478,0
	c-0.305,0-0.74,0.13-1.262,0.13c-1.602,0-4.026,0.057-5.945,0.024c0.035-0.98,0.124-1.815,0.269-2.554
	c0.14-0.72,0.331-1.302,0.557-1.782c0.17-0.36,0.359-0.644,0.562-0.881c0.308-0.356,0.641-0.597,1.068-0.776
	c0.428-0.177,0.966-0.283,1.654-0.284c1.224-0.003,2.902,0.358,5.005,1.17c0.015,0.007,0.032,0.008,0.049,0.015
	c0.018,0.005,0.03,0.016,0.048,0.02c0.031,0.01,0.062,0.011,0.093,0.018c0.048,0.012,0.097,0.022,0.145,0.029
	c0.047,0.005,0.093,0.007,0.139,0.009c0.048,0.001,0.094,0.001,0.142-0.001c0.047-0.004,0.093-0.01,0.137-0.019
	c0.045-0.007,0.092-0.016,0.136-0.028c0.044-0.012,0.087-0.027,0.129-0.043c0.044-0.015,0.088-0.032,0.129-0.053
	c0.041-0.02,0.079-0.042,0.117-0.066c0.04-0.024,0.079-0.051,0.117-0.079c0.037-0.026,0.069-0.056,0.102-0.087
	c0.036-0.033,0.071-0.065,0.103-0.1c0.029-0.034,0.057-0.07,0.085-0.107c0.027-0.038,0.056-0.077,0.08-0.119
	c0.023-0.04,0.044-0.084,0.064-0.128c0.015-0.029,0.031-0.055,0.043-0.085c0.007-0.017,0.01-0.034,0.016-0.052
	c0.005-0.016,0.015-0.029,0.02-0.045c0.29-0.956,0.788-2.559,1.216-4.25c0.213-0.848,0.411-1.719,0.558-2.559
	c0.145-0.84,0.244-1.643,0.244-2.392c-0.001-0.331-0.021-0.651-0.073-0.972c-0.083-0.511-0.438-0.94-0.923-1.118
	c-2.963-1.081-6.877-2.152-11.078-2.154c-3.295-0.001-6.787,0.671-10.032,2.564l0,0c-1.634,0.95-2.922,2.151-3.903,3.503
	c-1.477,2.031-2.262,4.368-2.704,6.741c-0.357,1.919-0.492,3.874-0.564,5.77c-0.845,0.02-1.805,0.026-2.679,0.026
	c-0.763,0-1.462-0.004-1.971-0.01c-0.253-0.003-0.458-0.004-0.602-0.006c-0.143-0.002-0.219-0.003-0.221-0.003
	c-0.384-0.006-0.76,0.146-1.032,0.415c-0.274,0.27-0.43,0.645-0.427,1.029l0.058,9.544c0.006,0.795,0.648,1.495,1.442,1.495
	c0,0,0.383,0,1.002,0c1.406,0,4.029-0.061,6.045-0.021c0.299,6.557,0.369,16.383,0.369,24.006c0,3.215-0.015,6.016-0.024,8.033
	c-0.008,1.006-0.014,1.806-0.019,2.36c-0.004,0.555-0.007,0.851-0.007,0.854c-0.004,0.383,0.146,0.752,0.418,1.025
	c0.271,0.271,0.642,0.423,1.025,0.421l12.776-0.064c0.384-0.001,0.746-0.155,1.014-0.429c0.271-0.272,0.418-0.638,0.415-1.022
	c0,0-0.067-7.855-0.146-16.329c-0.067-7.287-0.142-15.021-0.185-18.622c0.788-0.013,1.707-0.019,2.6-0.018
	c1.045,0,2.061,0.006,2.815,0.013c0.375,0.002,0.687,0.006,0.903,0.009c0.217,0.002,0.339,0.003,0.339,0.003
	c0.384,0.005,0.753-0.144,1.027-0.413"/>
<g transform="translate(0,-952.36218)">
	<path d="M32.162,952.362C14.442,952.362,0,966.805,0,984.525v68.109c0,17.721,14.442,32.163,32.162,32.163h68.109
		c17.721,0,32.163-14.442,32.163-32.163v-68.109c0-17.72-14.442-32.163-32.163-32.163H32.162z M32.162,963.714h68.109
		c11.628,0,20.812,9.184,20.812,20.811v68.109c0,11.628-9.184,20.812-20.812,20.812H32.162c-11.627,0-20.811-9.184-20.811-20.812
		v-68.109C11.352,972.897,20.535,963.714,32.162,963.714z"/>
</g>
</svg>
