<?xml version="1.0" encoding="utf-8"?>
<!-- Generator: Adobe Illustrator 16.0.0, SVG Export Plug-In . SVG Version: 6.00 Build 0)  -->
<!DOCTYPE svg PUBLIC "-//W3C//DTD SVG 1.1//EN" "http://www.w3.org/Graphics/SVG/1.1/DTD/svg11.dtd">
<svg version="1.1" id="Layer_1" xmlns="http://www.w3.org/2000/svg" xmlns:xlink="http://www.w3.org/1999/xlink" x="0px" y="0px"
	 width="132.435px" height="132.435px" viewBox="0 0 132.435 132.435" enable-background="new 0 0 132.435 132.435"
	 xml:space="preserve">
<g transform="translate(0,-952.36218)">
	<path d="M32.162,952.362C14.442,952.362,0,966.805,0,984.525v68.109c0,17.721,14.442,32.163,32.162,32.163h68.109
		c17.721,0,32.163-14.442,32.163-32.163v-68.109c0-17.72-14.442-32.163-32.163-32.163H32.162z M32.162,963.714h68.109
		c11.628,0,20.812,9.184,20.812,20.811v68.109c0,11.628-9.184,20.812-20.812,20.812H32.162c-11.627,0-20.811-9.184-20.811-20.812
		v-68.109C11.352,972.897,20.535,963.714,32.162,963.714z"/>
</g>
<g transform="translate(0,-952.36218)">
	<path d="M66.218,973.521c-23.191,0-42.059,18.867-42.059,42.058c0,7.622,2.078,15.08,6.025,21.671l-3.859,12.874
		c-0.403,1.344-0.258,2.766,0.409,4.001c0.666,1.234,1.772,2.136,3.122,2.54c1.046,0.312,2.177,0.289,3.215-0.068l12.557-4.334
		c6.261,3.521,13.342,5.375,20.589,5.375c23.19,0,42.058-18.867,42.058-42.058C108.275,992.389,89.408,973.521,66.218,973.521z
		 M66.218,1047.133c-6.117,0-12.038-1.744-17.122-5.043c-0.854-0.553-1.842-0.846-2.858-0.846c-0.586,0-1.165,0.097-1.714,0.288
		l-5.194,1.792l1.607-5.364c0.456-1.523,0.204-3.15-0.692-4.465c-3.703-5.434-5.581-11.461-5.581-17.916
		c0-17.398,14.155-31.552,31.553-31.552s31.554,14.154,31.554,31.552C97.771,1032.978,83.616,1047.133,66.218,1047.133z"/>
	<path d="M87.279,1026.648l-11.517-7.224l-0.025-0.025c-0.057-0.038-0.115-0.071-0.177-0.101c-0.169-0.111-0.358-0.187-0.556-0.229
		c-0.018,0-0.033,0-0.05,0c-0.042-0.009-0.084-0.018-0.127-0.025c-0.008,0-0.017,0-0.025,0c-0.269-0.015-0.539,0.038-0.783,0.152
		c-0.088,0.043-0.174,0.094-0.252,0.152c-0.053,0.031-0.104,0.064-0.152,0.1c-0.018,0.025-0.035,0.051-0.051,0.077
		c-0.063,0.054-0.123,0.113-0.177,0.177l-2.525,2.552c-4.58-2.306-8.101-6.17-11.265-11.392l2.324-2.299
		c0.044-0.039,0.086-0.081,0.127-0.125c0.034-0.032,0.068-0.066,0.1-0.101c0-0.008,0-0.017,0-0.025
		c0.036-0.032,0.069-0.065,0.102-0.101c0-0.009,0-0.017,0-0.025c0.017-0.025,0.034-0.05,0.05-0.076
		c0.017-0.016,0.034-0.033,0.05-0.05c0.019-0.042,0.035-0.083,0.05-0.126c0-0.009,0-0.017,0-0.025
		c0.009-0.017,0.017-0.034,0.026-0.05c0.018-0.034,0.034-0.067,0.05-0.102c0.01-0.041,0.018-0.083,0.025-0.125
		c0-0.009,0-0.017,0-0.025c0.011-0.05,0.019-0.101,0.025-0.151c0-0.008,0-0.017,0-0.025c0.002-0.042,0.002-0.084,0-0.126
		c0-0.008,0-0.017,0-0.025c0.002-0.042,0.002-0.083,0-0.125c0-0.017,0-0.034,0-0.05c-0.007-0.042-0.015-0.084-0.025-0.126
		c0-0.008,0-0.017,0-0.025c-0.025-0.095-0.059-0.189-0.102-0.277c0-0.009,0-0.017,0-0.025c-0.028-0.07-0.062-0.138-0.1-0.202
		l-0.025-0.05c-0.009-0.009-0.017-0.018-0.025-0.026l-7.198-11.82c-0.285-0.472-0.789-0.767-1.338-0.783
		c-0.052-0.002-0.102-0.002-0.152,0v-0.004c-0.121,0.012-6.504,3.137-7.881,5.684c-1.377,2.545-1.551,5.53-0.96,8.562
		c1.182,6.063,5.378,12.581,10.683,18.009c5.308,5.427,11.706,9.771,17.808,11.037c3.05,0.633,6.088,0.465,8.714-0.91
		c2.625-1.375,4.714-3.938,6.011-7.602C88.184,1027.835,87.911,1027.051,87.279,1026.648z M61.803,1027.474
		c-0.126-0.102-0.252-0.205-0.378-0.31C61.555,1027.275,61.675,1027.368,61.803,1027.474z M61.341,1027.095
		c-0.369-0.306-0.734-0.62-1.096-0.94C60.608,1026.467,60.961,1026.773,61.341,1027.095z"/>
</g>
</svg>
