<?xml version="1.0" encoding="utf-8"?>
<!-- Generator: Adobe Illustrator 16.0.0, SVG Export Plug-In . SVG Version: 6.00 Build 0)  -->
<!DOCTYPE svg PUBLIC "-//W3C//DTD SVG 1.1//EN" "http://www.w3.org/Graphics/SVG/1.1/DTD/svg11.dtd">
<svg version="1.1" id="Facebook" xmlns="http://www.w3.org/2000/svg" xmlns:xlink="http://www.w3.org/1999/xlink" x="0px" y="0px"
	 width="700px" height="700px" viewBox="0 0 700 700" enable-background="new 0 0 700 700" xml:space="preserve">
<g>
	<circle id="facebook-back" fill="#FFFFFF" cx="350" cy="350" r="350"/>
	<path id="facebook-facebook" fill="#1A1948" d="M520.279,158.594H179.724c-11.672,0-21.13,9.456-21.13,21.13v340.556
		c0,11.669,9.458,21.127,21.13,21.127h183.339V393.162h-49.887v-57.777h49.887v-42.604c0-49.446,30.2-76.37,74.313-76.37
		c21.122,0,39.28,1.573,44.572,2.278v51.672l-30.585,0.013c-23.995,0-28.637,11.399-28.637,28.126v36.884h57.209l-7.45,57.777
		h-49.759v148.244h97.552c11.669,0,21.127-9.458,21.127-21.127V179.724C541.406,168.049,531.948,158.594,520.279,158.594z"/>
</g>
</svg>
