<?xml version="1.0" encoding="utf-8"?>
<!-- Generator: Adobe Illustrator 16.0.0, SVG Export Plug-In . SVG Version: 6.00 Build 0)  -->
<!DOCTYPE svg PUBLIC "-//W3C//DTD SVG 1.1//EN" "http://www.w3.org/Graphics/SVG/1.1/DTD/svg11.dtd">
<svg version="1.1" id="Capa_1" xmlns="http://www.w3.org/2000/svg" xmlns:xlink="http://www.w3.org/1999/xlink" x="0px" y="0px"
	 width="700px" height="700px" viewBox="0 0 700 700" enable-background="new 0 0 700 700" xml:space="preserve">
<g>
	<path fill="none" d="M350,52.08C224,52.08,122.08,154,122.08,280S224,507.92,350,507.92S577.92,405.44,577.92,280
		C577.92,154.56,476,52.08,350,52.08z M296.8,156.8c0-29.12,23.521-53.2,53.2-53.2s53.2,23.52,53.2,53.2v152.32
		c0,29.12-23.521,53.2-53.2,53.2s-53.2-23.521-53.2-53.2V156.8z M430.08,309.68c0,40.88-31.36,74.48-71.12,78.96v49.84h62.16
		c5.04,0,8.96,3.92,8.96,8.96s-3.92,8.96-8.96,8.96H278.88c-5.04,0-8.96-3.92-8.96-8.96s3.92-8.96,8.96-8.96h62.16v-49.84
		c-39.76-4.48-71.12-38.08-71.12-78.96v-76.72c0-5.04,3.92-8.96,8.96-8.96s8.96,3.92,8.96,8.96v76.16
		c0,34.16,28,62.159,62.16,62.159s62.16-28,62.16-62.159v-76.16c0-5.04,3.92-8.96,8.96-8.96s8.96,3.92,8.96,8.96V309.68
		L430.08,309.68z"/>
	<path d="M350,28C211.12,28,98,141.12,98,280s113.12,252,252,252s252-113.12,252-252S488.88,28,350,28z M350,507.92
		C224,507.92,122.08,406,122.08,280S224,52.08,350,52.08S577.92,154.56,577.92,280C577.92,405.44,476,507.92,350,507.92z"/>
	<path d="M350,362.32c29.12,0,53.2-23.521,53.2-53.2V156.8c0-29.12-23.521-53.2-53.2-53.2s-53.2,23.52-53.2,53.2v152.32
		C296.8,338.8,320.88,362.32,350,362.32z"/>
	<path d="M421.12,224c-5.04,0-8.96,3.92-8.96,8.96v76.16c0,34.16-28,62.159-62.16,62.159s-62.16-28-62.16-62.159v-76.16
		c0-5.04-3.92-8.96-8.96-8.96s-8.96,3.92-8.96,8.96v76.16c0,40.88,31.36,74.479,71.12,78.96v49.84h-62.16
		c-5.04,0-8.96,3.92-8.96,8.96s3.92,8.96,8.96,8.96h141.68c5.04,0,8.96-3.92,8.96-8.96s-3.92-8.96-8.96-8.96h-61.6v-49.84
		c39.76-4.48,71.12-38.08,71.12-78.96v-76.16C430.08,228.48,426.16,224,421.12,224z"/>
</g>
</svg>
