<?xml version="1.0" encoding="utf-8"?>
<!-- Generator: Adobe Illustrator 16.0.0, SVG Export Plug-In . SVG Version: 6.00 Build 0)  -->
<!DOCTYPE svg PUBLIC "-//W3C//DTD SVG 1.1//EN" "http://www.w3.org/Graphics/SVG/1.1/DTD/svg11.dtd">
<svg version="1.1" id="Twitter" xmlns="http://www.w3.org/2000/svg" xmlns:xlink="http://www.w3.org/1999/xlink" x="0px" y="0px"
	 width="700px" height="700px" viewBox="0 0 700 700" enable-background="new 0 0 700 700" xml:space="preserve">
<g>
	<circle id="twitter-back" fill="#FFFFFF" cx="350" cy="350" r="350"/>
	<path id="twitter-twitter" fill="#1A1948" d="M545.999,228.427c-14.42,6.398-29.918,10.719-46.19,12.663
		c16.599-9.955,29.357-25.715,35.36-44.495c-15.536,9.215-32.749,15.912-51.067,19.517c-14.67-15.632-35.573-25.395-58.703-25.395
		c-44.423,0-80.427,36.006-80.427,80.418c0,6.307,0.713,12.443,2.083,18.329c-66.84-3.354-126.099-35.371-165.764-84.026
		c-6.924,11.875-10.889,25.691-10.889,40.431c0,27.899,14.198,52.514,35.776,66.936c-13.183-0.414-25.584-4.035-36.425-10.059
		c-0.008,0.336-0.008,0.673-0.008,1.015c0,38.965,27.723,71.467,64.514,78.859c-6.75,1.837-13.856,2.82-21.188,2.82
		c-5.183,0-10.222-0.508-15.133-1.442c10.235,31.947,39.935,55.2,75.129,55.847c-27.525,21.575-62.202,34.431-99.885,34.431
		c-6.491,0-12.89-0.379-19.181-1.122c35.592,22.82,77.862,36.13,123.282,36.13c147.928,0,228.822-122.545,228.822-228.823
		c0-3.487-0.079-6.954-0.234-10.404C521.582,258.719,535.222,244.556,545.999,228.427z"/>
</g>
</svg>
